<mxfile host="app.diagrams.net" modified="2023-12-13T06:05:15.812Z" agent="Mozilla/5.0 (Windows NT 10.0; Win64; x64) AppleWebKit/537.36 (KHTML, like Gecko) Chrome/119.0.0.0 Safari/537.36 Edg/119.0.0.0" version="22.1.8" etag="iFQ1GiVAL-x0Q73WXADB" type="github">
  <diagram name="Page-1" id="FFOl_XfUAIFha1XQiT5Q">
    <mxGraphModel>
      <root>
        <mxCell id="0" />
        <mxCell id="1" parent="0" />
      </root>
    </mxGraphModel>
  </diagram>
</mxfile>
